<?xml version="1.0" encoding="UTF-8"?>
<svg width="100px" height="100px" viewBox="0 0 100 100" version="1.1" xmlns="http://www.w3.org/2000/svg" xmlns:xlink="http://www.w3.org/1999/xlink">
    <!-- Generator: Sketch 47 (45396) - http://www.bohemiancoding.com/sketch -->
    <title>DATEV-Logo_A4_RGB_Kachel</title>
    <desc>Created with Sketch.</desc>
    <defs>
        <polygon id="path-1" points="0.06 100 0.06 0.787 99.213 0.787 99.213 100"></polygon>
    </defs>
    <g id="Page-1" stroke="none" stroke-width="1" fill="none" fill-rule="evenodd">
        <g id="DATEV-Logo_A4_RGB_Kachel">
            <g id="Group-3">
                <mask id="mask-2" fill="white">
                    <use xlink:href="#path-1"></use>
                </mask>
                <g id="Clip-2"></g>
                <path d="M11.339,0.787 C11.339,0.787 0,0.787 0,12.126 L0,88.661 C0,88.661 0,100 11.339,100 L87.874,100 C87.874,100 99.213,100 99.213,88.661 L99.213,12.126 C99.213,12.126 99.213,0.787 87.874,0.787 L11.339,0.787" id="Fill-1" fill="#FFFFFE" mask="url(#mask-2)"></path>
            </g>
            <g id="Group-7" transform="translate(8.000000, 10.000000)">
                <path d="M71.538,61.394 L71.538,64.504 L76.203,64.504 L71.962,75.671 L66.732,61.394 L62.632,61.394 L69.842,79.771 L74.224,79.771 L81.292,61.394 L71.538,61.394 Z M31.958,64.504 L31.958,61.394 L47.79,61.394 L47.79,64.504 L41.994,64.504 L41.994,79.771 L37.895,79.771 L37.895,64.504 L31.958,64.504 Z M24.89,79.771 L24.89,76.802 L29.979,76.802 L25.455,65.211 L19.942,79.771 L15.984,79.771 L23.052,61.394 L27.858,61.394 L35.068,79.771 L24.89,79.771 Z M49.345,61.394 L61.643,61.394 L61.643,64.504 L53.303,64.504 L53.303,68.603 L61.077,68.603 L61.077,71.713 L53.303,71.713 L53.303,76.802 L62.067,76.802 L62.067,79.771 L49.345,79.771 L49.345,61.394 Z M0.859,61.394 L8.068,61.394 C13.016,61.394 16.55,65.07 16.691,70.724 C16.691,75.813 12.451,79.771 7.503,79.771 L0.859,79.771 L0.859,61.394 Z M4.676,76.661 L6.796,76.661 C10.047,76.661 12.733,74.54 12.874,70.583 C13.016,66.766 10.895,64.504 7.786,64.504 L4.676,64.504 L4.676,76.661 L4.676,76.661 Z" id="Fill-4" fill="#27948C"></path>
                <polygon id="Fill-6" fill="#7CBC48" points="0.804 57.14 81.009 57.14 81.009 0.401 0.804 0.401"></polygon>
            </g>
        </g>
    </g>
</svg>